<?xml version="1.0" standalone="no"?>
<!DOCTYPE svg PUBLIC "-//W3C//DTD SVG 20010904//EN"
 "http://www.w3.org/TR/2001/REC-SVG-20010904/DTD/svg10.dtd">
<svg version="1.0" xmlns="http://www.w3.org/2000/svg"
 width="67.000000pt" height="75.000000pt" viewBox="0 0 67.000000 75.000000"
 preserveAspectRatio="xMidYMid meet">
<metadata>
Created by potrace 1.15, written by Peter Selinger 2001-2017
</metadata>
<g transform="translate(0.000000,75.000000) scale(0.100000,-0.100000)"
fill="#000000" stroke="none">
<path d="M268 734 c-26 -8 -56 -25 -66 -39 -26 -32 -39 -115 -20 -126 7 -5 78
-9 158 -9 80 0 151 4 158 9 19 11 6 94 -20 126 -19 24 -101 56 -142 54 -12 0
-42 -7 -68 -15z m157 -38 c24 -10 36 -23 40 -43 4 -15 8 -34 11 -40 2 -10 -29
-13 -136 -13 -107 0 -138 3 -136 13 3 6 7 25 11 40 4 19 16 33 38 42 42 19
129 19 172 1z"/>
<path d="M74 541 c-17 -10 -40 -31 -52 -46 -21 -27 -22 -37 -22 -257 0 -179 3
-229 13 -226 9 4 13 62 17 231 l5 227 26 25 c14 14 42 28 62 32 34 5 37 4 37
-19 0 -14 8 -36 18 -49 31 -39 33 -65 7 -77 -41 -19 -98 -76 -116 -117 -25
-54 -26 -175 -2 -216 19 -32 71 -55 87 -39 12 12 -1 27 -29 32 -29 5 -45 45
-45 113 0 72 28 136 78 173 l32 25 0 -42 c0 -45 10 -50 55 -29 34 15 34 42 0
34 -20 -5 -25 -3 -25 14 0 11 -6 20 -12 20 -10 0 -10 2 0 9 9 5 24 -2 44 -21
16 -15 38 -28 47 -28 9 0 3 -7 -14 -16 -16 -8 -44 -28 -60 -45 -17 -16 -41
-29 -53 -29 -27 0 -42 -33 -42 -93 0 -58 22 -87 66 -87 21 0 47 -9 61 -20 36
-28 130 -28 166 0 14 11 40 20 61 20 46 0 66 28 66 93 0 59 -14 87 -42 87 -12
0 -36 13 -53 29 -16 17 -43 37 -60 45 -17 9 -23 16 -14 16 9 0 31 13 47 28 20
19 35 26 44 21 10 -7 10 -9 1 -9 -7 0 -13 -9 -13 -20 0 -17 -5 -19 -25 -14
-34 8 -34 -19 0 -34 45 -21 55 -16 55 29 l0 40 29 -20 c56 -40 71 -78 71 -178
0 -94 -5 -107 -45 -115 -30 -5 -26 -34 5 -30 47 5 72 43 77 118 3 38 0 87 -6
109 -14 52 -62 110 -112 136 -44 22 -45 40 -8 88 33 42 20 99 -20 86 -24 -7
-29 -35 -6 -35 21 0 19 -17 -5 -37 -11 -10 -20 -26 -20 -36 0 -46 -62 -107
-110 -107 -49 0 -110 61 -110 109 0 11 -9 25 -20 31 -23 13 -27 40 -5 40 8 0
15 6 15 14 0 16 -34 31 -50 21 -5 -3 -10 -1 -10 4 0 18 -52 12 -86 -8z"/>
</g>
</svg>
