<?xml version="1.0" standalone="no"?>
<!DOCTYPE svg PUBLIC "-//W3C//DTD SVG 20010904//EN"
 "http://www.w3.org/TR/2001/REC-SVG-20010904/DTD/svg10.dtd">
<svg version="1.0" xmlns="http://www.w3.org/2000/svg"
 width="57.000000pt" height="81.000000pt" viewBox="0 0 57.000000 81.000000"
 preserveAspectRatio="xMidYMid meet">
<metadata>
Created by potrace 1.15, written by Peter Selinger 2001-2017
</metadata>
<g transform="translate(0.000000,81.000000) scale(0.100000,-0.100000)"
fill="#000000" stroke="none">
<path d="M233 786 c-17 -21 -29 -24 -107 -27 -134 -6 -126 19 -126 -383 l0
-333 23 -21 c23 -21 31 -22 265 -22 229 0 243 1 262 20 19 19 20 33 20 359 l0
340 -26 20 c-22 17 -41 21 -106 21 -74 0 -82 2 -100 25 -26 34 -79 34 -105 1z
m-73 -76 c0 -5 -22 -10 -50 -10 l-50 0 0 -325 0 -325 225 0 225 0 0 325 0 325
-44 0 c-25 0 -48 5 -51 11 -5 7 13 9 52 7 l58 -3 3 -334 c2 -261 -1 -336 -10
-343 -22 -13 -452 -10 -466 4 -9 9 -12 98 -12 338 0 180 3 330 7 333 10 11
113 8 113 -3z m12 -57 c8 -9 46 -13 114 -13 68 0 107 4 116 13 7 6 28 12 46
13 l32 1 0 -288 0 -289 -195 0 -195 0 0 283 c0 156 2 286 4 288 10 9 66 3 78
-8z"/>
</g>
</svg>
