<?xml version="1.0" standalone="no"?>
<!DOCTYPE svg PUBLIC "-//W3C//DTD SVG 20010904//EN"
 "http://www.w3.org/TR/2001/REC-SVG-20010904/DTD/svg10.dtd">
<svg version="1.0" xmlns="http://www.w3.org/2000/svg"
 width="90.000000pt" height="75.000000pt" viewBox="0 0 90.000000 75.000000"
 preserveAspectRatio="xMidYMid meet">
<metadata>
Created by potrace 1.15, written by Peter Selinger 2001-2017
</metadata>
<g transform="translate(0.000000,75.000000) scale(0.100000,-0.100000)"
fill="#000000" stroke="none">
<path d="M210 676 c-203 -70 -205 -71 -205 -100 0 -26 5 -31 47 -45 49 -17 71
-31 48 -31 -8 0 -34 -7 -58 -17 -37 -14 -43 -20 -40 -42 2 -21 13 -30 56 -47
l53 -21 -53 -19 c-44 -16 -54 -24 -56 -45 -3 -23 3 -29 38 -43 22 -9 48 -16
57 -16 26 0 6 -14 -45 -31 -42 -14 -47 -19 -47 -45 0 -29 2 -30 205 -101 113
-39 221 -71 240 -71 19 0 127 32 240 71 203 71 205 72 205 101 0 26 -5 31 -47
45 -51 17 -71 31 -45 31 9 0 35 7 57 16 35 14 41 20 38 43 -2 21 -12 29 -56
45 l-53 19 53 21 c43 17 54 26 56 47 3 22 -3 28 -40 42 -24 10 -50 17 -58 17
-23 0 -1 14 48 31 42 14 47 19 47 45 0 29 -1 29 -210 101 -115 40 -223 72
-240 71 -16 0 -122 -33 -235 -72z m460 -17 c115 -40 210 -77 210 -84 0 -6 -34
-22 -75 -36 -41 -13 -75 -26 -75 -29 0 -3 32 -17 72 -31 40 -14 73 -30 75 -36
4 -10 -101 -53 -131 -53 -9 0 -16 -6 -16 -12 0 -7 34 -23 76 -36 47 -14 74
-27 72 -35 -3 -7 -37 -23 -76 -37 -40 -14 -72 -27 -72 -31 0 -3 34 -16 75 -29
41 -13 75 -29 75 -36 0 -10 -402 -154 -432 -154 -29 0 -428 144 -428 155 0 6
34 22 75 35 41 13 75 26 75 29 0 4 -32 17 -72 31 -39 14 -73 30 -76 37 -2 8
25 21 72 35 42 13 75 27 73 31 -1 4 -33 19 -71 32 -37 13 -71 26 -74 30 -10
10 11 21 80 45 38 13 68 26 68 29 0 3 -34 17 -75 30 -41 14 -75 30 -75 37 0
10 393 151 427 153 7 1 107 -31 223 -70z"/>
<path d="M258 641 c-92 -31 -167 -60 -167 -66 0 -5 80 -36 179 -68 l179 -59
180 59 c99 32 180 63 180 68 0 11 -345 127 -369 124 -8 -1 -90 -27 -182 -58z
m349 -14 l152 -53 -154 -51 -155 -51 -155 51 -156 52 153 52 c84 28 155 52
158 52 3 0 73 -23 157 -52z"/>
<path d="M148 468 c-32 -11 -58 -23 -58 -26 0 -4 81 -34 179 -68 l179 -61 181
61 c99 34 181 64 181 68 0 4 -31 17 -68 29 l-69 22 -111 -37 -112 -38 -108 36
c-59 20 -114 36 -122 35 -8 0 -41 -10 -72 -21z m189 -35 l113 -37 113 37 c106
35 116 36 152 24 21 -8 34 -16 29 -19 -5 -3 -74 -27 -152 -53 l-144 -47 -126
42 c-70 24 -138 47 -152 53 l-25 9 35 13 c19 8 37 14 40 14 2 1 55 -16 117
-36z"/>
<path d="M153 337 c-35 -11 -63 -24 -63 -28 0 -3 81 -34 180 -69 l179 -62 181
62 c99 35 180 66 180 69 0 4 -30 17 -67 29 l-68 22 -112 -37 -113 -37 -113 37
c-62 20 -115 37 -117 36 -3 0 -33 -10 -67 -22z m408 -39 c63 22 121 37 129 34
71 -23 72 -22 -89 -77 l-154 -52 -151 53 c-158 55 -156 53 -86 76 8 3 65 -12
126 -33 l110 -39 115 38z"/>
<path d="M560 188 l-114 -38 -99 35 c-54 19 -108 35 -120 35 -29 0 -131 -36
-134 -47 -1 -4 79 -35 177 -68 l180 -60 179 60 c99 33 179 64 178 68 -2 5 -32
19 -67 31 l-65 23 -115 -39z m-218 -25 l106 -38 111 39 c106 37 113 38 155 25
l45 -13 -152 -54 -152 -54 -157 53 -157 54 37 11 c53 17 47 18 164 -23z"/>
</g>
</svg>
