<?xml version="1.0" standalone="no"?>
<!DOCTYPE svg PUBLIC "-//W3C//DTD SVG 20010904//EN"
 "http://www.w3.org/TR/2001/REC-SVG-20010904/DTD/svg10.dtd">
<svg version="1.0" xmlns="http://www.w3.org/2000/svg"
 width="77.000000pt" height="77.000000pt" viewBox="0 0 77.000000 77.000000"
 preserveAspectRatio="xMidYMid meet">
<metadata>
Created by potrace 1.15, written by Peter Selinger 2001-2017
</metadata>
<g transform="translate(0.000000,77.000000) scale(0.100000,-0.100000)"
fill="#000000" stroke="none">
<path d="M100 630 c0 -118 2 -140 15 -140 13 0 15 21 15 125 l0 125 240 0 239
0 3 -62 3 -63 63 -3 62 -3 0 -44 c0 -33 4 -45 15 -45 12 0 15 14 15 63 l0 63
-63 62 -63 62 -272 0 -272 0 0 -140z"/>
<path d="M548 550 c-87 -27 -138 -93 -138 -179 0 -29 7 -65 14 -80 15 -29 80
-91 95 -91 5 0 11 -9 14 -20 4 -15 0 -20 -14 -20 -17 0 -19 -8 -19 -65 l0 -65
-75 0 c-60 0 -75 -3 -75 -15 0 -13 30 -15 210 -15 l210 0 0 110 c0 91 -3 110
-15 110 -12 0 -15 -17 -15 -95 l0 -95 -27 0 c-28 0 -28 0 -25 61 4 54 2 61
-17 66 -21 5 -30 43 -11 43 18 0 87 69 100 100 20 49 9 142 -23 183 -42 56
-129 87 -189 67z m108 -46 c114 -54 106 -221 -13 -270 -27 -12 -33 -20 -33
-44 0 -23 -4 -30 -20 -30 -16 0 -20 7 -20 30 0 24 -6 32 -33 44 -112 46 -126
200 -23 261 48 29 94 32 142 9z"/>
<path d="M554 499 c-50 -14 -94 -71 -94 -122 0 -118 137 -181 221 -101 99 95
5 260 -127 223z m85 -43 c53 -28 66 -97 26 -144 -29 -35 -69 -45 -110 -28 -43
18 -58 41 -58 86 0 77 73 121 142 86z"/>
<path d="M90 428 c-29 -31 -27 -98 3 -126 33 -31 96 -30 125 1 31 33 30 96 -1
125 -32 30 -99 30 -127 0z"/>
<path d="M25 245 c-24 -23 -25 -31 -25 -135 0 -91 3 -110 15 -110 12 0 15 18
15 100 0 88 2 102 21 121 19 19 30 21 111 17 115 -4 118 -7 118 -140 0 -80 3
-98 15 -98 12 0 15 19 15 110 0 104 -1 112 -25 135 -23 23 -31 25 -130 25 -99
0 -107 -2 -130 -25z"/>
</g>
</svg>
