<?xml version="1.0" standalone="no"?>
<!DOCTYPE svg PUBLIC "-//W3C//DTD SVG 20010904//EN"
 "http://www.w3.org/TR/2001/REC-SVG-20010904/DTD/svg10.dtd">
<svg version="1.0" xmlns="http://www.w3.org/2000/svg"
 width="76.000000pt" height="76.000000pt" viewBox="0 0 76.000000 76.000000"
 preserveAspectRatio="xMidYMid meet">
<metadata>
Created by potrace 1.15, written by Peter Selinger 2001-2017
</metadata>
<g transform="translate(0.000000,76.000000) scale(0.100000,-0.100000)"
fill="#000000" stroke="none">
<path d="M327 710 c-37 -48 -41 -70 -11 -70 10 0 14 -12 14 -38 0 -31 -5 -41
-24 -50 -18 -8 -27 -7 -40 6 -15 15 -19 14 -48 -16 -30 -29 -31 -33 -16 -48
13 -13 14 -22 6 -40 -9 -19 -19 -24 -50 -24 -26 0 -38 4 -38 14 0 8 -5 18 -10
21 -14 8 -109 -66 -109 -85 0 -14 75 -80 100 -89 6 -2 13 6 16 18 8 32 76 30
91 -3 8 -18 7 -27 -6 -40 -15 -15 -14 -18 15 -48 27 -26 34 -29 47 -19 9 8 26
11 41 7 21 -5 25 -12 25 -45 0 -31 -4 -40 -21 -44 -26 -7 -23 -15 21 -72 39
-50 61 -56 83 -22 8 12 25 32 37 45 23 24 21 52 -5 52 -11 0 -15 11 -15 40 0
34 4 41 25 46 15 4 32 1 41 -7 13 -10 20 -7 47 19 29 30 30 33 15 48 -13 13
-14 22 -6 40 15 32 83 35 91 4 3 -11 9 -20 15 -20 17 0 102 75 102 90 -1 14
-76 80 -101 89 -6 2 -13 -6 -16 -18 -8 -32 -76 -30 -91 3 -8 18 -7 27 6 40 15
15 14 19 -16 48 -29 30 -33 31 -48 16 -13 -13 -22 -14 -40 -6 -33 15 -35 83
-3 91 12 3 20 10 18 16 -9 25 -75 100 -89 100 -8 0 -32 -22 -53 -49z m81 -11
c19 -23 20 -29 8 -29 -13 0 -16 -12 -16 -63 l0 -64 42 -16 c37 -15 43 -15 58
-2 15 14 19 14 31 -1 11 -14 11 -18 -4 -29 -16 -11 -16 -14 1 -53 l17 -42 62
0 c45 0 62 4 65 14 2 11 10 8 32 -11 l29 -25 -29 -23 c-22 -18 -30 -20 -32 -9
-3 10 -20 14 -65 14 l-62 0 -17 -42 c-16 -37 -16 -43 -3 -58 14 -15 14 -18 0
-30 -13 -11 -18 -10 -28 4 -11 15 -15 15 -54 -1 l-43 -18 0 -62 c0 -45 4 -62
14 -65 11 -2 9 -10 -9 -32 l-23 -29 -25 29 c-19 22 -22 30 -11 32 10 3 14 20
14 65 l0 62 -42 17 c-39 17 -42 17 -53 1 -11 -15 -15 -15 -29 -4 -15 12 -15
16 -1 31 13 15 13 21 -2 58 l-16 42 -63 0 c-46 0 -63 -4 -66 -14 -2 -11 -10
-9 -31 10 l-28 24 28 24 c21 19 29 21 31 10 3 -10 20 -14 66 -14 l62 0 19 42
c16 37 16 42 2 52 -13 10 -13 14 -1 31 13 18 15 18 27 2 11 -16 15 -16 55 -1
l42 17 0 64 c0 51 -3 63 -16 63 -12 0 -11 6 8 29 13 17 25 30 28 30 3 0 15
-13 28 -30z"/>
<path d="M317 442 c-58 -60 -18 -152 65 -152 53 0 88 35 88 88 0 84 -96 124
-153 64z"/>
</g>
</svg>
